
<svg width="40" height="40" viewBox="0 0 40 40" fill="none" xmlns="http://www.w3.org/2000/svg">
  <rect width="40" height="40" rx="20" fill="#10B981"/>
  <path d="M15.7677 12C15.4201 12 15.1318 12.2954 15.1677 12.6411L15.6175 16.9681L12.4871 14.5752C12.1998 14.3593 11.8002 14.4296 11.5996 14.7285L10.1002 16.9211C9.9001 17.2188 9.9823 17.6143 10.2859 17.8122L13.4775 19.8916L9.73748 20.7754C9.39355 20.8608 9.17773 21.2144 9.27051 21.5557L10.0947 24.1978C10.1875 24.5391 10.5479 24.7461 10.8918 24.6489L14.7402 23.5557L13.4004 27.1001C13.2529 27.4224 13.3962 27.7969 13.7256 27.9355L16.3516 29.1299C16.6797 29.2681 17.0557 29.1152 17.1855 28.7842L18.7939 24.9702L21.1445 27.6763C21.3901 27.9624 21.8129 27.9526 22.0444 27.6538L23.9556 25.2476C24.187 24.9487 24.1538 24.5122 23.8853 24.2539L21.2778 21.8003L25.2084 21.3901C25.5576 21.3506 25.8125 21.0281 25.7596 20.6807L25.2715 17.9507C25.2188 17.603 24.895 17.3589 24.5449 17.4023L20.6641 17.9214L22.6523 14.8213C22.8428 14.52 22.7246 14.1167 22.4033 13.9419L19.9297 12.6113C19.6084 12.4365 19.2075 12.5811 19.04 12.9023L17.2358 16.2969L16.8457 12.6543C16.8091 12.3063 16.5126 12.0193 16.1642 12.0022C16.0328 11.9966 15.9004 11.9982 15.7677 12Z" fill="white"/>
</svg>
